# xmcd CD database file
#
# Track frame offsets:
#	150
#	13425
#	27014
#	44099
#	57072
#	69742
#	83699
#	95350
#	108661
#	122474
#	133675
#	148272
#	156138
#	170921
#	184828
#	197807
#
# Disc length: 2814 seconds
#
# Revision: 1
# Processed by: cddbd v1.5.2PL0 Copyright (c) Steve Scherf et al.
# Submitted via: CDex 1.51
#
DISCID=ea0afc10
DTITLE=Various Artist - Jazz - The Essential Collection disc 3
DYEAR=1900
DGENRE=Jazz
TTITLE0=Ted Weems and His Orchestra (feat. Parker Gibbs) - Piccolo Pete
TTITLE1=Louis Armstrong - Ain't Misbehavin'
TTITLE2=Paul Whiteman and His Orchestra - Concerto In F
TTITLE3=Duke Ellington and His Orchestra - Jazz Lips
TTITLE4=Benny Goodman - Don't Be That Way
TTITLE5=Billie Holliday (feat. Teddy Wilson and His Orchestra) - Carelessly
TTITLE6=Ella Fitzgerald (feat. Chick Webb and His Orchestra) - A-tisket, A-tasket
TTITLE7=Fats Waller - It's A Sin To Tell A Lie
TTITLE8=Glen Gray - Sunrise Serenade
TTITLE9=Harry Richman - Puttin' On The Ritz
TTITLE10=Jimmie Lunceford and His Orchestra - Rhythm Is Our Business
TTITLE11=The Mills Brothers - Tiger Rag
TTITLE12=Benny Goodman - Blue Moon
TTITLE13=Bing Crosby (feat. Isham Jones' Orchestra) - Sweet Georgia Brown
TTITLE14=Clyde McCoy and His Orchestra - Sugar Blues
TTITLE15=The Boswell Sisters - Coffee In The Morning (Kisses At Night)
EXTD=
EXTT0=
EXTT1=
EXTT2=
EXTT3=
EXTT4=
EXTT5=
EXTT6=
EXTT7=
EXTT8=
EXTT9=
EXTT10=
EXTT11=
EXTT12=
EXTT13=
EXTT14=
EXTT15=
PLAYORDER=
